# xmcd CD database file
#
# Track frame offsets:
#	150
#	16632
#	32870
#	56169
#	73460
#	89635
#	107795
#	123265
#	138150
#	153872
#	170552
#	186532
#	201602
#	216022
#	232490
#	250215
#
# Disc length: 3554 seconds
#
# Revision: 0
# Processed by: cddbd v1.5PL3 Copyright (c) Steve Scherf et al.
# Submitted via: Feurio! 1.67 - http://www.feurio.com
#
DISCID=f80de010
DTITLE=Various Artist - Hits 2004 die erste
DYEAR=1900
DGENRE=
TTITLE0=Laith Al-Deen - Alles an Dir
TTITLE1=Zeichen der Zeit - Du bist nicht allein
TTITLE2=Mic - Jemand da
TTITLE3=Naturally 7 - Another You
TTITLE4=Natasha Thomas - It's over now
TTITLE5=Peter Schilling - Raumnot (Wenn Du weisst was es heisst)
TTITLE6=Costa Cordalis - Jungle Beat
TTITLE7=Dschungel Stars - Ich bin ein Star - holt mich hier raus
TTITLE8=Bellini - Tutti Frutti
TTITLE9=2 Unlimited - Triabal Dance
TTITLE10=Master Blaster Vs. Turbo B. - Ballet Dancer
TTITLE11=Future Mind - Big Fat Ass
TTITLE12=Beats and Styles Feat. B.O.Dubb, Toni W and Max'c - Dynamite
TTITLE13=Mark Oh' Feat. Tjerk - Words
TTITLE14=Mandy and Randy Feat. Skedee Wedee - Jump
TTITLE15=Gigi D'Agostino - Silence [Version 4]
EXTD=
EXTT0=
EXTT1=
EXTT2=
EXTT3=
EXTT4=
EXTT5=
EXTT6=
EXTT7=
EXTT8=
EXTT9=
EXTT10=
EXTT11=
EXTT12=
EXTT13=
EXTT14=
EXTT15=
PLAYORDER=
